HIERARCHY
ROOT SpineBase
{
  OFFSET 0.000000 0.000000 0.000000
  CHANNELS 6 Xposition Yposition Zposition Zrotation Xrotation Yrotation
  JOINT SpineMid
  {
    OFFSET 0.000000 29.738093 0.000000
    CHANNELS 3 Zrotation Xrotation Yrotation
    JOINT SpineShoulder
    {
      OFFSET 0.183265 22.011346 -0.553673
      CHANNELS 3 Zrotation Xrotation Yrotation
      JOINT Neck
      {
        OFFSET 0.046584 7.279516 -0.477712
        CHANNELS 3 Zrotation Xrotation Yrotation
        JOINT Head
        {
          OFFSET 4.596453 12.343767 0.810700
          CHANNELS 3 Zrotation Xrotation Yrotation
          End Site
          {
            OFFSET 0 0 0
          }
        }
      }
      JOINT ShoulderLeft
      {
        OFFSET -12.310556 -3.682873 -8.477332
        CHANNELS 3 Zrotation Xrotation Yrotation
        JOINT ElbowLeft
        {
          OFFSET -4.207055 -22.844744 -0.578927
          CHANNELS 3 Zrotation Xrotation Yrotation
          JOINT WristLeft
          {
            OFFSET 2.772547 -23.787047 -5.604167
            CHANNELS 3 Zrotation Xrotation Yrotation
            JOINT HandLeft
            {
              OFFSET 0.223978 -5.792571 1.008381
              CHANNELS 3 Zrotation Xrotation Yrotation
              JOINT HandTipLeft
              {
                OFFSET -0.061226 -5.974794 -0.393178
                CHANNELS 3 Zrotation Xrotation Yrotation
                End Site
                {
                  OFFSET 0 0 0
                }
              }
              JOINT ThumbLeft
              {
                OFFSET 3.434776 -0.558163 -0.437513
                CHANNELS 3 Zrotation Xrotation Yrotation
                End Site
                {
                  OFFSET 0 0 0
                }
              }
            }
          }
        }
      }
      JOINT ShoulderRight
      {
        OFFSET 15.688860 -5.286444 4.592053
        CHANNELS 3 Zrotation Xrotation Yrotation
        JOINT ElbowRight
        {
          OFFSET 2.707183 -23.866870 2.939171
          CHANNELS 3 Zrotation Xrotation Yrotation
          JOINT WristRight
          {
            OFFSET 2.308102 -23.001821 0.563216
            CHANNELS 3 Zrotation Xrotation Yrotation
            JOINT HandRight
            {
              OFFSET -0.344745 -5.709708 -1.168086
              CHANNELS 3 Zrotation Xrotation Yrotation
              JOINT HandTipRight
              {
                OFFSET 0.877651 -5.782410 1.387295
                CHANNELS 3 Zrotation Xrotation Yrotation
                End Site
                {
                  OFFSET 0 0 0
                }
              }
              JOINT ThumbRight
              {
                OFFSET 1.942873 0.147094 -2.469542
                CHANNELS 3 Zrotation Xrotation Yrotation
                End Site
                {
                  OFFSET 0 0 0
                }
              }
            }
          }
        }
      }
    }
  }
  JOINT HipLeft
  {
    OFFSET -4.977667 1.537218 -5.670459
    CHANNELS 3 Zrotation Xrotation Yrotation
    JOINT KneeLeft
    {
      OFFSET -6.990663 -31.028669 10.945696
      CHANNELS 3 Zrotation Xrotation Yrotation
      JOINT AnkleLeft
      {
        OFFSET -3.914997 -33.294893 3.855898
        CHANNELS 3 Zrotation Xrotation Yrotation
        JOINT FootLeft
        {
          OFFSET 3.186309 -5.159010 -1.768830
          CHANNELS 3 Zrotation Xrotation Yrotation
          End Site
          {
            OFFSET 0 0 0
          }
        }
      }
    }
  }
  JOINT HipRight
  {
    OFFSET 4.562508 -0.410785 -1.059458
    CHANNELS 3 Zrotation Xrotation Yrotation
    JOINT KneeRight
    {
      OFFSET -7.419148 -31.500676 9.075746
      CHANNELS 3 Zrotation Xrotation Yrotation
      JOINT AnkleRight
      {
        OFFSET -0.826821 -27.589883 5.925441
        CHANNELS 3 Zrotation Xrotation Yrotation
        JOINT FootRight
        {
          OFFSET -2.759882 -6.360462 -5.015157
          CHANNELS 3 Zrotation Xrotation Yrotation
          End Site
          {
            OFFSET 0 0 0
          }
        }
      }
    }
  }
}
MOTION
Frames: 12
Frame Time: 0.033333
-2.303582 44.457087 379.732517 -23.067046 -26.659632 -9.348186 0.335250 -0.477593 3.339247 0.476456 0.757569 -0.866611 -5.963544 16.177365 11.426515 0.000000 0.000000 0.000000 -53.228633 -14.878573 14.648699 8.193465 -24.984529 -22.592059 17.813971 29.465723 -13.261580 1.759730 7.052307 13.279032 0.000000 0.000000 0.000000 0.000000 0.000000 0.000000 8.550555 -22.440416 -10.553084 1.741015 13.430659 2.580014 3.027141 -21.059326 8.093356 151.269461 73.181888 -137.224481 0.000000 0.000000 0.000000 0.000000 0.000000 0.000000 149.174383 56.815715 -121.677859 -132.539956 -78.063928 -106.075114 43.560604 32.859587 -17.053061 0.000000 0.000000 0.000000 113.181186 38.357136 -50.367581 -74.442317 -11.425868 -32.219039 56.443526 47.731017 -63.643968 0.000000 0.000000 0.000000
-2.708903 43.238703 381.000971 -22.137922 -25.524071 -9.912047 0.511687 -0.476545 4.343526 0.512537 0.748558 -0.835331 -6.183566 15.286146 10.953505 0.000000 0.000000 0.000000 -56.517876 -17.053239 13.142962 12.381716 -23.109756 -22.133301 20.807985 34.963979 -12.403429 0.377070 1.735105 11.077029 0.000000 0.000000 0.000000 0.000000 0.000000 0.000000 7.939132 -23.862340 -10.444469 2.284417 14.755592 2.394571 -0.250008 -22.073116 9.261953 139.889677 69.918686 -121.061879 0.000000 0.000000 0.000000 0.000000 0.000000 0.000000 155.279128 53.923486 -128.608957 -147.286935 -76.356313 -120.141176 39.743356 30.498978 -14.507055 0.000000 0.000000 0.000000 123.914297 35.747288 -54.784217 -84.918826 -9.471199 -37.991145 45.207592 48.580326 -51.202642 0.000000 0.000000 0.000000
-3.360179 42.195719 382.461157 -21.340754 -24.213011 -9.097713 0.894084 -0.145417 3.958763 0.504538 0.797922 -0.779351 -6.249273 14.110737 10.237470 0.000000 0.000000 0.000000 -57.883439 -19.438990 10.696030 16.794232 -20.052951 -20.985767 32.214559 47.792904 -14.650841 -13.238952 -14.079667 4.342790 0.000000 0.000000 0.000000 0.000000 0.000000 0.000000 7.511302 -25.491600 -10.227319 3.465751 17.765043 1.994526 -1.706583 -20.606907 8.814823 132.246991 70.749069 -112.003120 0.000000 0.000000 0.000000 0.000000 0.000000 0.000000 158.360940 50.282562 -131.585714 -155.466086 -74.323507 -127.499149 28.883891 30.403304 -7.226165 0.000000 0.000000 0.000000 129.820686 33.457468 -56.417702 -90.745224 -7.537676 -41.541111 37.566770 27.785761 -34.753532 0.000000 0.000000 0.000000
-4.046444 41.455776 383.781352 -20.685609 -22.757781 -7.111180 1.147432 0.319067 2.430526 0.406773 0.791436 -0.727346 -5.166437 13.047555 9.106485 0.000000 0.000000 0.000000 -57.244241 -21.694930 7.936459 21.728981 -13.515467 -17.257520 43.019676 59.052617 -18.691360 -21.749053 -31.620383 -8.328712 0.000000 0.000000 0.000000 0.000000 0.000000 0.000000 7.274839 -27.228996 -10.058820 4.922936 20.969792 1.434807 -0.417067 -13.938192 6.760400 102.600559 76.071034 -84.259865 0.000000 0.000000 0.000000 0.000000 0.000000 0.000000 158.753634 47.028930 -130.648200 -157.423322 -72.491236 -128.557242 16.272139 31.756268 1.892964 0.000000 0.000000 0.000000 135.663345 29.744641 -55.908386 -97.170479 -4.891899 -44.823856 22.707354 15.306673 -16.805885 0.000000 0.000000 0.000000
-5.067471 41.017707 385.092665 -20.246647 -21.186186 -5.469868 1.205036 0.524525 1.206739 0.253051 0.673182 -0.703868 -3.030279 12.557434 7.791971 0.000000 0.000000 0.000000 -54.666634 -22.814677 6.020498 26.518102 -5.018764 -12.962523 44.428960 60.654604 -18.364463 -22.590555 -29.730346 -10.368916 0.000000 0.000000 0.000000 0.000000 0.000000 0.000000 8.413867 -28.150502 -9.621710 6.073302 24.413404 0.807740 -0.915057 -7.912010 5.137068 59.208090 76.831232 -42.388508 0.000000 0.000000 0.000000 0.000000 0.000000 0.000000 158.830120 44.270742 -128.014042 -154.185832 -70.685855 -124.084449 2.384654 26.951727 9.340876 0.000000 0.000000 0.000000 140.005788 27.309754 -54.709980 -101.463052 -2.677563 -46.961012 20.991223 5.759103 -11.899713 0.000000 0.000000 0.000000
-6.159064 40.986663 386.200750 -20.005822 -19.542390 -4.391071 1.395227 0.855315 0.502078 0.253399 0.582798 -0.698753 -0.576868 11.942795 6.380867 0.000000 0.000000 0.000000 -54.049683 -23.411517 4.347871 29.797721 -0.194726 -11.178724 51.658489 63.639817 -22.449413 -33.687992 -29.959906 -18.136037 0.000000 0.000000 0.000000 0.000000 0.000000 0.000000 9.163471 -26.453866 -8.622215 9.350781 24.710168 -0.954903 7.752159 6.435653 -1.778172 0.465586 64.903861 5.633759 0.000000 0.000000 0.000000 0.000000 0.000000 0.000000 158.661263 42.809924 -124.775597 -148.969779 -69.299603 -117.773373 -9.324739 19.866079 13.321328 0.000000 0.000000 0.000000 142.527106 26.513150 -53.626721 -103.509593 -1.862477 -48.096007 20.543101 3.607942 -11.586615 0.000000 0.000000 0.000000
-7.200906 41.214942 387.150569 -19.656078 -17.682031 -2.846145 1.524508 0.973267 -0.632387 0.175725 0.311072 -0.711682 1.900550 11.389516 5.105357 0.000000 0.000000 0.000000 -54.053870 -23.204092 3.204049 36.240111 4.412347 -10.848562 51.763058 67.042643 -22.619279 -36.430244 -39.053448 -25.192856 0.000000 0.000000 0.000000 0.000000 0.000000 0.000000 10.886755 -26.838133 -7.862625 9.956937 28.196616 -1.498966 5.182709 -0.943469 -0.566062 -4.036043 68.150640 8.161502 0.000000 0.000000 0.000000 0.000000 0.000000 0.000000 159.008259 40.842203 -122.343604 -149.132305 -66.964673 -116.721709 -17.052814 9.842887 11.381137 0.000000 0.000000 0.000000 142.063623 26.968580 -51.948552 -103.013313 -2.811439 -48.233060 23.621867 2.282030 -14.389108 0.000000 0.000000 0.000000
-7.984860 41.730467 388.213484 -18.874780 -15.973236 -3.346120 1.551764 0.978182 0.294411 0.159553 -0.026650 -0.725239 3.035267 11.283536 4.198636 0.000000 0.000000 0.000000 -54.577479 -22.092333 2.808417 43.643845 7.515584 -11.544692 39.067395 63.619307 -14.229245 -34.334661 -46.635099 -25.774252 0.000000 0.000000 0.000000 0.000000 0.000000 0.000000 13.112207 -28.544855 -7.076370 7.993530 34.084061 -1.027765 8.162968 -8.507535 -0.793083 -18.901428 70.598021 17.250302 0.000000 0.000000 0.000000 0.000000 0.000000 0.000000 156.585873 43.693072 -118.870068 -136.378603 -68.331786 -104.317125 -16.713915 9.012521 11.741604 0.000000 0.000000 0.000000 139.888208 30.320726 -54.473835 -99.965102 -7.467319 -48.338174 26.881112 4.763084 -19.694153 0.000000 0.000000 0.000000
-8.683365 41.827906 388.641106 -17.769966 -13.471621 0.179249 1.481409 0.270283 -2.717050 0.293756 0.160911 -0.665978 3.837478 11.048870 3.139185 0.000000 0.000000 0.000000 -55.677201 -21.927038 1.418646 51.891334 11.810741 -12.827725 31.411739 61.747136 -9.832185 -27.108114 -56.160674 -22.378525 0.000000 0.000000 0.000000 0.000000 0.000000 0.000000 15.262900 -32.180444 -6.124538 4.706654 41.362964 0.147554 11.369481 -24.658671 1.998798 -42.487706 79.686837 37.429779 0.000000 0.000000 0.000000 0.000000 0.000000 0.000000 152.630172 43.369096 -112.611350 -133.639220 -67.205800 -101.119749 -19.684402 14.911116 18.106389 0.000000 0.000000 0.000000 137.001030 29.120264 -47.321390 -100.529389 -4.514370 -47.557614 27.029749 5.290757 -20.018070 0.000000 0.000000 0.000000
-9.210148 41.983867 389.351231 -16.760891 -11.628512 -3.664256 1.107900 0.264209 1.567030 0.258579 0.150202 -0.636167 4.910247 10.404627 2.365943 0.000000 0.000000 0.000000 -55.559899 -19.320449 1.498253 57.351037 13.357466 -12.437321 25.994268 58.887831 -6.899504 -12.267061 -59.992822 -10.613131 0.000000 0.000000 0.000000 0.000000 0.000000 0.000000 18.948677 -36.300944 -4.683065 -0.664366 49.630193 2.510194 11.487111 -30.550186 3.037262 -43.194477 78.693765 37.773305 0.000000 0.000000 0.000000 0.000000 0.000000 0.000000 154.046629 46.736592 -114.749914 -129.716458 -66.326397 -96.918474 -13.858368 19.732572 18.436041 0.000000 0.000000 0.000000 136.481358 34.268256 -51.728436 -98.381616 -7.596289 -47.740018 21.261552 5.110617 -17.032614 0.000000 0.000000 0.000000
-9.413366 42.029917 389.829408 -14.952611 -9.420736 -5.156365 0.909976 0.343152 3.599824 0.175383 0.015575 -0.580315 3.516675 8.584640 2.190771 0.000000 0.000000 0.000000 -55.067420 -17.960609 0.764505 61.712351 17.862953 -12.192735 26.636387 52.732203 -6.063793 2.208506 -54.149878 2.281825 0.000000 0.000000 0.000000 0.000000 0.000000 0.000000 22.461182 -41.202998 -2.421061 -5.961665 56.971846 4.888952 5.538894 -29.814497 1.726486 -24.400300 72.386240 21.900055 0.000000 0.000000 0.000000 0.000000 0.000000 0.000000 152.880874 49.789187 -115.372561 -128.025977 -66.735260 -95.380933 -12.216805 28.201789 22.801106 0.000000 0.000000 0.000000 135.245760 37.305798 -52.459526 -98.475968 -8.388442 -48.185590 20.995482 0.474444 -14.862515 0.000000 0.000000 0.000000
-9.985671 42.237477 390.512956 -13.662928 -7.532496 -6.262294 0.857425 0.065527 5.041716 0.188193 -0.020954 -0.531484 1.919608 7.389307 2.079904 0.000000 0.000000 0.000000 -53.086899 -15.483555 0.981596 63.671150 19.866030 -11.520902 27.015351 51.626502 -5.580366 5.240004 -48.822351 4.940190 0.000000 0.000000 0.000000 0.000000 0.000000 0.000000 28.173695 -45.795321 1.096526 -14.237889 63.846536 9.284349 -3.624671 -31.310983 -0.113774 -5.854313 68.258511 10.023496 0.000000 0.000000 0.000000 0.000000 0.000000 0.000000 153.040948 50.990762 -115.292796 -124.332520 -66.073299 -91.513997 -15.226338 27.258819 24.603641 0.000000 0.000000 0.000000 134.277060 39.791934 -53.044158 -98.187764 -9.527022 -48.451029 20.521227 -2.710529 -13.573607 0.000000 0.000000 0.000000
